<mxfile host="65bd71144e">
    <diagram id="D70d7DCEPUBcWH6TIPZb" name="PÃ¡gina-1">
        <mxGraphModel dx="810" dy="478" grid="0" gridSize="10" guides="1" tooltips="1" connect="1" arrows="1" fold="1" page="1" pageScale="1" pageWidth="827" pageHeight="1169" background="none" math="0" shadow="0">
            <root>
                <mxCell id="0"/>
                <mxCell id="1" parent="0"/>
                <mxCell id="2" value="&lt;i&gt;&lt;br&gt;&lt;b&gt;Aplicacion&lt;/b&gt;&lt;br&gt;{abstract}&lt;/i&gt;" style="swimlane;fontStyle=0;align=center;verticalAlign=top;childLayout=stackLayout;horizontal=1;startSize=70;horizontalStack=0;resizeParent=1;resizeParentMax=0;resizeLast=0;collapsible=0;marginBottom=0;html=1;" parent="1" vertex="1">
                    <mxGeometry x="77" y="70" width="140" height="68" as="geometry"/>
                </mxCell>
                <mxCell id="12" value="&lt;font style=&quot;font-size: 24px&quot; face=&quot;Comic Sans MS&quot;&gt;UML -&amp;nbsp; Juego Bricks Breaker&lt;/font&gt;" style="text;html=1;strokeColor=none;fillColor=none;align=center;verticalAlign=middle;whiteSpace=wrap;rounded=0;" parent="1" vertex="1">
                    <mxGeometry x="199" y="12" width="330" height="30" as="geometry"/>
                </mxCell>
                <mxCell id="13" value="&lt;br&gt;&lt;b&gt;+ Driver&lt;/b&gt;&lt;br&gt;" style="swimlane;fontStyle=0;align=center;verticalAlign=top;childLayout=stackLayout;horizontal=1;startSize=55;horizontalStack=0;resizeParent=1;resizeParentMax=0;resizeLast=0;collapsible=0;marginBottom=0;html=1;" parent="1" vertex="1">
                    <mxGeometry x="52" y="224.26999999999998" width="190" height="163" as="geometry"/>
                </mxCell>
                <mxCell id="15" value="&amp;nbsp;" style="text;html=1;strokeColor=none;fillColor=none;align=left;verticalAlign=middle;spacingLeft=4;spacingRight=4;overflow=hidden;rotatable=0;points=[[0,0.5],[1,0.5]];portConstraint=eastwest;" parent="13" vertex="1">
                    <mxGeometry y="55" width="190" height="20" as="geometry"/>
                </mxCell>
                <mxCell id="14" value="&amp;nbsp;" style="text;html=1;strokeColor=none;fillColor=none;align=center;verticalAlign=middle;spacingLeft=4;spacingRight=4;overflow=hidden;rotatable=0;points=[[0,0.5],[1,0.5]];portConstraint=eastwest;" parent="13" vertex="1">
                    <mxGeometry y="75" width="190" height="20" as="geometry"/>
                </mxCell>
                <mxCell id="16" value="&amp;nbsp;" style="text;html=1;strokeColor=none;fillColor=none;align=left;verticalAlign=middle;spacingLeft=4;spacingRight=4;overflow=hidden;rotatable=0;points=[[0,0.5],[1,0.5]];portConstraint=eastwest;fontColor=#808080;" parent="13" vertex="1">
                    <mxGeometry y="95" width="190" height="20" as="geometry"/>
                </mxCell>
                <mxCell id="18" value="" style="line;strokeWidth=1;fillColor=none;align=left;verticalAlign=middle;spacingTop=-1;spacingLeft=3;spacingRight=3;rotatable=0;labelPosition=right;points=[];portConstraint=eastwest;" parent="13" vertex="1">
                    <mxGeometry y="115" width="190" height="8" as="geometry"/>
                </mxCell>
                <mxCell id="19" value="+ Start(Stage primaryStage): void" style="text;html=1;strokeColor=none;fillColor=none;align=center;verticalAlign=middle;spacingLeft=4;spacingRight=4;overflow=hidden;rotatable=0;points=[[0,0.5],[1,0.5]];portConstraint=eastwest;" parent="13" vertex="1">
                    <mxGeometry y="123" width="190" height="20" as="geometry"/>
                </mxCell>
                <mxCell id="20" value="+ main(String[] args): void" style="text;html=1;strokeColor=none;fillColor=none;align=left;verticalAlign=middle;spacingLeft=4;spacingRight=4;overflow=hidden;rotatable=0;points=[[0,0.5],[1,0.5]];portConstraint=eastwest;" parent="13" vertex="1">
                    <mxGeometry y="143" width="190" height="20" as="geometry"/>
                </mxCell>
                <mxCell id="21" value="&lt;br&gt;&lt;b&gt;+ ladrillo&lt;/b&gt;" style="swimlane;fontStyle=0;align=center;verticalAlign=top;childLayout=stackLayout;horizontal=1;startSize=55;horizontalStack=0;resizeParent=1;resizeParentMax=0;resizeLast=0;collapsible=0;marginBottom=0;html=1;" parent="1" vertex="1">
                    <mxGeometry y="602" width="230" height="180" as="geometry"/>
                </mxCell>
                <mxCell id="23" value="name: brickLayout&lt;br&gt;id: int" style="text;html=1;strokeColor=none;fillColor=none;align=left;verticalAlign=middle;spacingLeft=4;spacingRight=4;overflow=hidden;rotatable=0;points=[[0,0.5],[1,0.5]];portConstraint=eastwest;" parent="21" vertex="1">
                    <mxGeometry y="55" width="230" height="35" as="geometry"/>
                </mxCell>
                <mxCell id="26" value="" style="line;strokeWidth=1;fillColor=none;align=left;verticalAlign=middle;spacingTop=-1;spacingLeft=3;spacingRight=3;rotatable=0;labelPosition=right;points=[];portConstraint=eastwest;" parent="21" vertex="1">
                    <mxGeometry y="90" width="230" height="8" as="geometry"/>
                </mxCell>
                <mxCell id="28" value="+ ladrillo ()&lt;br&gt;+ getBrickStage(Rectangule brick): int&lt;br&gt;return HP" style="text;html=1;strokeColor=none;fillColor=none;align=left;verticalAlign=middle;spacingLeft=4;spacingRight=4;overflow=hidden;rotatable=0;points=[[0,0.5],[1,0.5]];portConstraint=eastwest;" parent="21" vertex="1">
                    <mxGeometry y="98" width="230" height="82" as="geometry"/>
                </mxCell>
                <mxCell id="29" value="&lt;i&gt;&lt;b&gt;+Game&lt;/b&gt;&lt;br&gt;{abstract}&lt;/i&gt;" style="swimlane;fontStyle=0;align=center;verticalAlign=top;childLayout=stackLayout;horizontal=1;startSize=55;horizontalStack=0;resizeParent=1;resizeParentMax=0;resizeLast=0;collapsible=0;marginBottom=0;html=1;" parent="1" vertex="1">
                    <mxGeometry x="379" y="185.77" width="240" height="240" as="geometry"/>
                </mxCell>
                <mxCell id="31" value="- gameMode:&amp;nbsp;" style="text;html=1;strokeColor=none;fillColor=none;align=left;verticalAlign=middle;spacingLeft=4;spacingRight=4;overflow=hidden;rotatable=0;points=[[0,0.5],[1,0.5]];portConstraint=eastwest;" parent="29" vertex="1">
                    <mxGeometry y="55" width="240" height="20" as="geometry"/>
                </mxCell>
                <mxCell id="33" value="newnivel: boolean&lt;br&gt;rapbola: double&lt;br&gt;puntos, vida, ladrilloRotos, nivel: int&lt;br&gt;xDireccion, yDireccion: double&lt;br&gt;x: int" style="text;html=1;strokeColor=none;fillColor=none;align=left;verticalAlign=middle;spacingLeft=4;spacingRight=4;overflow=hidden;rotatable=0;points=[[0,0.5],[1,0.5]];portConstraint=eastwest;" parent="29" vertex="1">
                    <mxGeometry y="75" width="240" height="95" as="geometry"/>
                </mxCell>
                <mxCell id="34" value="" style="line;strokeWidth=1;fillColor=none;align=left;verticalAlign=middle;spacingTop=-1;spacingLeft=3;spacingRight=3;rotatable=0;labelPosition=right;points=[];portConstraint=eastwest;" parent="29" vertex="1">
                    <mxGeometry y="170" width="240" height="8" as="geometry"/>
                </mxCell>
                <mxCell id="36" value="Iniciar&lt;br&gt;Jugar&lt;br&gt;Ganar&lt;br&gt;Perder" style="text;html=1;strokeColor=none;fillColor=none;align=left;verticalAlign=middle;spacingLeft=4;spacingRight=4;overflow=hidden;rotatable=0;points=[[0,0.5],[1,0.5]];portConstraint=eastwest;" parent="29" vertex="1">
                    <mxGeometry y="178" width="240" height="62" as="geometry"/>
                </mxCell>
                <mxCell id="54" value="&lt;br&gt;&lt;b&gt;+ ladrilloRoto&lt;/b&gt;" style="swimlane;fontStyle=0;align=center;verticalAlign=top;childLayout=stackLayout;horizontal=1;startSize=55;horizontalStack=0;resizeParent=1;resizeParentMax=0;resizeLast=0;collapsible=0;marginBottom=0;html=1;" parent="1" vertex="1">
                    <mxGeometry x="343" y="512" width="330" height="360" as="geometry"/>
                </mxCell>
                <mxCell id="55" value="&amp;nbsp;" style="text;html=1;strokeColor=none;fillColor=none;align=left;verticalAlign=middle;spacingLeft=4;spacingRight=4;overflow=hidden;rotatable=0;points=[[0,0.5],[1,0.5]];portConstraint=eastwest;" parent="54" vertex="1">
                    <mxGeometry y="55" width="330" height="35" as="geometry"/>
                </mxCell>
                <mxCell id="56" value="" style="line;strokeWidth=1;fillColor=none;align=left;verticalAlign=middle;spacingTop=-1;spacingLeft=3;spacingRight=3;rotatable=0;labelPosition=right;points=[];portConstraint=eastwest;" parent="54" vertex="1">
                    <mxGeometry y="90" width="330" height="8" as="geometry"/>
                </mxCell>
                <mxCell id="57" value="&lt;font color=&quot;#ffffff&quot;&gt;+ ladrilloRoto ()&lt;br&gt;+&amp;nbsp;moverbola():void&lt;br&gt;&lt;/font&gt;&lt;div style=&quot;line-height: 19px&quot;&gt;&lt;span style=&quot;color: rgb(255 , 255 , 255)&quot;&gt;+&amp;nbsp;checkForCollision(): void&lt;/span&gt;&lt;br&gt;&lt;/div&gt;&lt;div style=&quot;line-height: 19px&quot;&gt;&lt;div style=&quot;line-height: 19px&quot;&gt;&lt;font color=&quot;#ffffff&quot;&gt;+&amp;nbsp;lifeLoss(): void&lt;/font&gt;&lt;/div&gt;&lt;div style=&quot;line-height: 19px&quot;&gt;&lt;span style=&quot;color: rgb(255 , 255 , 255)&quot;&gt;+&amp;nbsp;update(Game game, GameTime gameTime): void&lt;/span&gt;&lt;br&gt;&lt;/div&gt;&lt;div style=&quot;line-height: 19px&quot;&gt;&lt;font color=&quot;#ffffff&quot;&gt;+updateganar(Game game, GameTime gameTime): void&lt;/font&gt;&lt;/div&gt;&lt;div style=&quot;line-height: 19px&quot;&gt;&lt;font color=&quot;#ffffff&quot;&gt;+checkganar(): void&lt;/font&gt;&lt;/div&gt;&lt;div style=&quot;line-height: 19px&quot;&gt;&lt;font color=&quot;#ffffff&quot;&gt;+updateLoss(Game game, GameTime gameTime): void&lt;/font&gt;&lt;/div&gt;&lt;div style=&quot;line-height: 19px&quot;&gt;&lt;font color=&quot;#ffffff&quot;&gt;+updatePlay(Game game, GameTime gameTime):void&lt;/font&gt;&lt;/div&gt;&lt;div style=&quot;line-height: 19px&quot;&gt;&lt;font color=&quot;#ffffff&quot;&gt;+updateStart(Game game, GameTime gameTime): void&lt;/font&gt;&lt;/div&gt;&lt;/div&gt;" style="text;html=1;strokeColor=none;fillColor=none;align=left;verticalAlign=middle;spacingLeft=4;spacingRight=4;overflow=hidden;rotatable=0;points=[[0,0.5],[1,0.5]];portConstraint=eastwest;" parent="54" vertex="1">
                    <mxGeometry y="98" width="330" height="262" as="geometry"/>
                </mxCell>
                <mxCell id="76" value="&amp;lt;&amp;lt;extend&amp;gt;&amp;gt;" style="html=1;verticalAlign=bottom;labelBackgroundColor=none;endArrow=open;endFill=0;dashed=1;entryX=0.5;entryY=1;entryDx=0;entryDy=0;exitX=0.5;exitY=0;exitDx=0;exitDy=0;" parent="1" source="13" target="2" edge="1">
                    <mxGeometry width="160" relative="1" as="geometry">
                        <mxPoint x="571" y="317" as="sourcePoint"/>
                        <mxPoint x="492" y="248" as="targetPoint"/>
                    </mxGeometry>
                </mxCell>
                <mxCell id="77" value="&amp;lt;&amp;lt;extend&amp;gt;&amp;gt;" style="html=1;verticalAlign=bottom;labelBackgroundColor=none;endArrow=open;endFill=0;dashed=1;exitX=0.5;exitY=0;exitDx=0;exitDy=0;" parent="1" source="54" edge="1">
                    <mxGeometry width="160" relative="1" as="geometry">
                        <mxPoint x="379" y="676" as="sourcePoint"/>
                        <mxPoint x="508" y="426" as="targetPoint"/>
                    </mxGeometry>
                </mxCell>
                <mxCell id="78" value="" style="endArrow=diamondThin;endFill=1;endSize=24;html=1;exitX=1.004;exitY=-0.035;exitDx=0;exitDy=0;rounded=1;startArrow=open;startFill=0;exitPerimeter=0;entryX=-0.009;entryY=0.341;entryDx=0;entryDy=0;entryPerimeter=0;" parent="1" source="28" target="57" edge="1">
                    <mxGeometry width="160" relative="1" as="geometry">
                        <mxPoint x="331" y="736.5" as="sourcePoint"/>
                        <mxPoint x="345" y="750" as="targetPoint"/>
                    </mxGeometry>
                </mxCell>
                <mxCell id="79" value="" style="endArrow=diamondThin;endFill=1;endSize=24;html=1;exitX=0;exitY=0.5;exitDx=0;exitDy=0;entryX=1;entryY=0.5;entryDx=0;entryDy=0;rounded=1;startArrow=open;startFill=0;" parent="1" source="33" target="14" edge="1">
                    <mxGeometry width="160" relative="1" as="geometry">
                        <mxPoint x="462" y="422" as="sourcePoint"/>
                        <mxPoint x="351" y="505" as="targetPoint"/>
                    </mxGeometry>
                </mxCell>
                <mxCell id="80" value="&lt;div style=&quot;background-color: rgb(39 , 40 , 34) ; font-family: &amp;#34;consolas&amp;#34; , &amp;#34;courier new&amp;#34; , monospace ; font-weight: normal ; font-size: 14px ; line-height: 19px&quot;&gt;&lt;span style=&quot;color: rgb(248 , 248 , 242)&quot;&gt;&lt;span style=&quot;color: #f92672&quot;&gt;package&lt;/span&gt;&amp;nbsp;&lt;/span&gt;&lt;font color=&quot;#f92672&quot;&gt;Game&lt;/font&gt;&lt;/div&gt;" style="shape=folder;fontStyle=1;spacingTop=10;tabWidth=40;tabHeight=14;tabPosition=left;html=1;" parent="1" vertex="1">
                    <mxGeometry x="299" y="73.5" width="258" height="61" as="geometry"/>
                </mxCell>
            </root>
        </mxGraphModel>
    </diagram>
</mxfile>